<?xml version="1.0" encoding="UTF-8"?>
<svg id="Layer_1" data-name="Layer 1" xmlns="http://www.w3.org/2000/svg" viewBox="0 0 718.78 141.34">
  <defs>
    <style>
      .cls-1 {
        font-family: Montserrat-Medium, Montserrat;
        font-size: 20.42px;
        font-weight: 500;
      }

      .cls-1, .cls-2 {
        isolation: isolate;
      }

      .cls-1, .cls-3 {
        fill: #fff;
      }

      .cls-4 {
        fill: #fbb317;
      }

      .cls-5 {
        letter-spacing: 0em;
      }

      .cls-6 {
        letter-spacing: 0em;
      }

      .cls-7 {
        fill: #fdba12;
      }

      .cls-8 {
        letter-spacing: -.02em;
      }

      .cls-9 {
        letter-spacing: -.03em;
      }

      .cls-10 {
        letter-spacing: -.03em;
      }

      .cls-11 {
        letter-spacing: 0em;
      }

      .cls-12 {
        letter-spacing: 0em;
      }
    </style>
  </defs>
  <g>
    <path class="cls-3" d="M74.12,127.41c-3.68.56-9.49,2.45-12.89,2.4l-26.87-.41c-4.99-.08-9.61-5.76-10.45-9.35-1.26-5.37,1.08-11.34,6.25-13.98,3.53-1.79,7.26-2.64,12.28-3.78-4.76-4.45-4.86-10.06-2.83-15.67,3.81-10.51,10.62-18.11,21.91-22.6-6.63-6.33-8.75-13.86-6.22-23.04,1.77-6.43,7.91-14.05,16.57-14.69,9.14-.68,16.31,6.4,19.11,13.8,3.3,8.71,1.11,17.12-5.71,23.96,11.3,4.4,18.43,12.43,22.33,23.13,2.01,5.5,1.2,10.79-3.41,15.24,4.96,1.04,8.87,1.85,12.33,3.53,5.31,2.59,7.35,7.84,6.67,13.26-.64,5.1-5.15,8.82-10.96,10.45h-31l-7.1-2.26h0ZM73.32,64.97l4.9-4.84c4.03-3.99,8.19-9.15,6.07-14.7l-2.32-2.07c1.1.98,1.22-8.18-8.16-10.43-3.91-.94-3.28,7.86-11.58,13.21-3.53,4.29,2.08,10.81,5.16,13.55l5.94,5.28s-.01,0-.01,0ZM102.24,108.28c-7.06-2.5-9.5,4.14-13.13,2.32-.97-.49-2.49-2.73-1.91-3.63,2.43-3.74,10.22-5.8,14.37-12.94-1.9-12.41-10.51-21.26-21.85-24.8l-6.6,9.05-6.97-8.91c-11.04,3.87-20.03,13.98-20.37,25.87,12.32,13.84,31.3,17.41,44.04,27.92l21.18-.28c1.75-.02,4.23-2.49,4.92-3.89s-.15-5.91-1.72-6.47l-11.97-4.24h.01ZM61.74,122.96l7.44-4.15-18.28-10.45-14.89,2.44c-3.18.52-5.57,4.78-5.1,7.42.37,2.06,3.93,5.08,6.41,5.05l24.42-.3h0Z"/>
    <path class="cls-7" d="M71.53,7.94c-12.54,1.06-23.24,7.14-29.35,16.95-12.98,20.83.64,32.75-4.79,35.83-6.34,3.6-15.47-24.9,4.34-45.55,19.06-19.88,49.06-18.1,66.26,3.5,15.37,19.3,7.3,46.45,1.24,42.04-2-1.45-1.91-3.33-.91-5.92,4.47-11.62,1.29-25.63-7.49-34.51-7.7-7.79-17.97-13.3-29.3-12.34h0Z"/>
    <path class="cls-7" d="M143.01,141.31h-21.1c-1.07,0-3.21-1.73-3.37-2.77-.19-1.25,1.96-3.62,3.45-3.62l18.15-.04-.07-16.38c0-1.58,1.42-4.1,2.88-4.21,1.86-.13,3.98,1.93,3.97,4.34l-.13,18.27c0,1.41-2.37,4.41-3.78,4.41h0Z"/>
    <path class="cls-7" d="M24.45,134.94c1.06.02,3.44,1.54,3.59,2.55.18,1.2-2.2,3.82-3.59,3.78l-14.13-.36c-3-.08-8.25,2.01-10.1-2.37L.02,116.92c0-1.22,2.77-3.14,3.83-2.86s2.86,2.45,2.85,3.55l-.12,17.06,17.87.28h0Z"/>
    <path class="cls-7" d="M140.27,23.86l-.2-17.29c-10.24-3.6-17.23,2.42-21.26-1.99-.72-.79.46-3.81,1.51-4.58l26.04.2.73,21.25c.05,1.37-1.3,3.67-2.2,4.31s-4.6-.48-4.62-1.91h0Z"/>
    <path class="cls-7" d="M6.78,6.36l-.16,17.43c-.02,1.73-4.67,2.51-6.62,1.74L.25.19l24.94-.12c1.25,0,3.65,3.28,2.82,3.9-4.69,3.47-11.3.14-21.22,2.4h-.01Z"/>
  </g>
  <g>
    <g>
      <path class="cls-3" d="M245.72,76.9l-.79-33.32-13.03,25.94-7.9.22c-4.54-9.43-8.15-17-13.22-25.83l-.45,32.87-11.99.05.04-55.1,13.95.06,15.73,31.95,15.19-32.08,13.94.05.09,55.14-11.55.05s-.01,0-.01,0Z"/>
      <polygon class="cls-3" points="387.97 54.71 405.71 76.82 391.48 77.17 377.15 59.39 375.8 76.93 364.25 76.79 364.22 20.27 376.11 20.04 376.38 51.79 390.63 35.08 404.53 35.24 387.97 54.71"/>
      <path class="cls-3" d="M344.44,76.84l-.11-24.54c-.02-5.13-4.77-8.15-8.82-8.08-5.18.09-9.22,3.74-9.19,9.41l.11,22.91-11.49.28.03-41.71,10.4-.03,2.34,3.39c5.55-4.5,11.35-5.13,18.43-3.21,3.7,1.62,9.57,6.65,9.61,12.74l.22,28.79-11.54.05h.01Z"/>
      <path class="cls-4" d="M445.69,51.44c5.52,5.03,4.07,13.63,1.16,18.24-4.17,6.61-10.57,7.43-18.23,7.47-9.06.04-17.67-3.08-19.52-13.77l10.03-1.74c2.62,5.4,7.78,8.2,13.62,6.43,2.25-.68,5.07-3.9,5.18-6.01.4-8.22-15.38-6.29-25.05-15.8-4.47-4.39-3.48-12.89-.35-17.86s9.45-6.9,16.07-7.06c8.42-.2,17.15,2.59,18.31,12.01-1.84,1.8-7.62,3.25-9.36,1.56-2.1-2.04-4.95-4.46-6.99-4.62-2.72-.21-7.28,1.4-8.58,3.59-6.24,10.52,12.77,7.6,23.7,17.56h0Z"/>
      <path class="cls-3" d="M308.41,56.04c0,12.24-9.93,22.17-22.17,22.17s-22.17-9.93-22.17-22.17,9.93-22.17,22.17-22.17,22.17,9.93,22.17,22.17ZM296.76,55.71c-.3-7.32-5.31-11.8-11.36-11.57-5.44.21-9.15,4.93-9.65,11.02-.52,6.46,3.75,12.25,9.76,12.58,6.21.35,11.55-4.62,11.25-12.03h0Z"/>
      <path class="cls-4" d="M541.83,76.5l-9.72.65-1.23-5.37c-7.39,7.77-21.73,7.53-28.37-2.1-6.89-9.99-4.12-29.66,9-34.23,10.39-3.62,18.68,4.68,19.13,3.7l1.49-3.23,9.65-.08.05,40.67h0ZM531.18,57.87c1.03-7.23-3.97-14.65-11.21-14.23s-10.87,7.34-10.47,13.88c.39,6.4,4.99,11.02,10.73,10.83s9.95-3.47,10.96-10.48h-.01Z"/>
      <path class="cls-4" d="M657.23,59.24c-.17,3.47,3.21,7.9,6.57,9.23,4.51,1.79,8.74-.64,12.14-4.11,2.55-.52,7.03.79,9.61,2.18-2.7,7.31-8.24,9.69-15.36,10.66-11.71,1.59-22.15-5.59-24.05-17.61-1.28-8.12,2.03-16.91,8.16-21.12,7.27-4.99,15.42-5.14,23.22-1.12s11.33,12.32,8.81,20.72l-29.11,1.17s.01,0,.01,0ZM676.45,52.24c.97-6.56-4.38-8.79-9.5-8.91-5-.13-9.78,3.07-9.76,9.2l19.26-.28h0Z"/>
      <path class="cls-4" d="M572.72,43.81c-12.89-2.97-11.89,16.9-11.68,32.97l-10.4.05-.07-40.52c5.36-1.88,10.35-.58,12.3,3.06,5.45-4.91,11.32-6.13,18.15-3.85,5.32,1.78,9.85,7.21,9.85,14.38l-.03,26.9h-10.53l-.17-24.43c-.03-3.9-4.08-7.79-7.41-8.56h0Z"/>
      <path class="cls-4" d="M610.14,52.33l-.29,24.57-10.29-.25-.06-40.83,9.13-.19,2.42,4.67c5.04-5.9,11.03-7.2,17.72-5.05,5.42,1.74,10.84,7.33,10.87,14.59l.12,27.01-10.75-.12-.04-23.08c0-4.97-3.94-9.25-8.47-10.09-4.54-.84-10.27,3.61-10.33,8.77h-.03Z"/>
      <path class="cls-4" d="M469.2,65.95c5.55,4.53,11.99,2.67,15.03-3.52l10.27,3.27c-3.63,9.17-10.26,11.09-18.37,11.56-9.84.57-17.76-4.77-20.73-14.55-3.08-10.13,1.36-22.02,10.73-26.17,10.18-4.51,22.49-2.32,27.88,9-1.43,1.44-7.21,3.87-9.35,2.5l-6.97-4.48c-1.66-1.07-6.53.99-8.07,2.41-5.43,5-6.23,15.25-.41,20v-.02h-.01Z"/>
      <path class="cls-4" d="M704.84,76.8h-10.3l.02-40.97,9.91-.08,1.92,4.72c2.93-4.07,6.8-5.79,12.26-5.86l.13,9.78c-3.92.66-7.57,1.39-10.29,3.38-2.05,1.5-3.15,6.67-3.22,9.52l-.43,19.5h0Z"/>
    </g>
    <g class="cls-2">
      <g class="cls-2">
        <text class="cls-1" transform="translate(198.34 111.87)"><tspan x="0" y="0">S</tspan><tspan class="cls-8" x="12.68" y="0">C</tspan><tspan x="26.89" y="0">AN. CRE</tspan><tspan class="cls-9" x="111.64" y="0">A</tspan><tspan x="125.87" y="0">T</tspan><tspan class="cls-12" x="137.85" y="0">E</tspan><tspan x="151.74" y="0">. </tspan><tspan class="cls-9" x="161.87" y="0">C</tspan><tspan class="cls-5" x="175.71" y="0">ONN</tspan><tspan class="cls-11" x="226.03" y="0">E</tspan><tspan class="cls-8" x="239.69" y="0">C</tspan><tspan class="cls-10" x="253.9" y="0">T</tspan><tspan class="cls-6" x="265.23" y="0">.</tspan></text>
      </g>
    </g>
  </g>
</svg>